<svg xmlns="http://www.w3.org/2000/svg" version="1.1" xmlns:xlink="http://www.w3.org/1999/xlink" xmlns:svgjs="http://svgjs.dev/svgjs" width="1000" height="623" viewBox="0 0 1000 623"><g transform="matrix(1,0,0,1,-0.6060606060606233,0.2522267206477409)"><svg viewBox="0 0 396 247" data-background-color="#ffffff" preserveAspectRatio="xMidYMid meet" height="623" width="1000" xmlns="http://www.w3.org/2000/svg" xmlns:xlink="http://www.w3.org/1999/xlink"><g id="tight-bounds" transform="matrix(1,0,0,1,0.2400000000000091,-0.09999999999999432)"><svg viewBox="0 0 395.52 247.2" height="247.2" width="395.52"><g><svg></svg></g><g><svg viewBox="0 0 395.52 247.2" height="247.2" width="395.52"><g transform="matrix(1,0,0,1,130.8323657142857,47.215199999999996)"><svg viewBox="0 0 133.85526857142858 152.7696" height="152.7696" width="133.85526857142858"><g><svg viewBox="0 0 133.85526857142858 152.7696" height="152.7696" width="133.85526857142858"><g><svg viewBox="0 0 133.85526857142858 152.7696" height="152.7696" width="133.85526857142858"><g><svg viewBox="0 0 133.85526857142858 152.7696" height="152.7696" width="133.85526857142858"><g id="textblocktransform"><svg viewBox="0 0 133.85526857142858 152.7696" height="152.7696" width="133.85526857142858" id="textblock"><g><svg viewBox="0 0 133.85526857142858 152.7696" height="152.7696" width="133.85526857142858"><g transform="matrix(1,0,0,1,0,0)"><svg width="133.85526857142858" viewBox="-0.10000000149011612 -36.04999923706055 32.19999694824219 36.75" height="152.7696" data-palette-color="#6d28d9"><path d="M11.95 0.7L11.95 0.7Q-0.1 0.7-0.1-8.05L-0.1-8.05Q-0.1-9.4 0.2-10.95L0.2-10.95 0.85-14.65 9.85-14.65 9.55-13Q9.35-11.75 9.35-10.45 9.35-9.15 10-8.3L10-8.3Q11-7.05 13.3-7.05 15.6-7.05 17.03-8.3 18.45-9.55 19.05-12.9L19.05-12.9 23.15-36.05 32.1-36.05 27.9-12.2Q26.75-5.55 22.9-2.43 19.05 0.7 11.95 0.7Z" opacity="1" transform="matrix(1,0,0,1,0,0)" fill="#6d28d9" class="undefined-text-0" data-fill-palette-color="primary" id="text-0"></path></svg></g></svg></g></svg></g></svg></g></svg></g></svg></g></svg></g><path d="M82.386 41.215L82.386 0 329.586 0 329.586 247.2 82.386 247.2 82.386 205.985 96.163 205.985 96.163 233.423 315.809 233.423 315.809 13.777 96.163 13.777 96.163 41.215Z" fill="#6d28d9" stroke="transparent" data-fill-palette-color="primary"></path></svg></g><defs></defs></svg><rect width="395.52" height="247.2" fill="none" stroke="none" visibility="hidden"></rect></g></svg></g></svg>